<?xml version="1.0" encoding="UTF-8"?>
<svg id="Layer_2" data-name="Layer 2" xmlns="http://www.w3.org/2000/svg" viewBox="0 0 498.55 414.36">
  <g id="Layer_1-2" data-name="Layer 1">
    <g>
      <path d="M489.47,9.69C483.04,3.11,473.12-.13,459.95,.08c-39.51,.63-75.66,.94-110.5,.94S279.51,.69,247,.03c-.96-.02-1.89-.03-2.82-.03-17.02,0-27.98,3.2-34.47,10.06-6.56,6.94-9.16,18.35-8.17,35.92,.82,14.57,.62,28.88,.41,44.03v.15c-.09,6.7-.19,13.62-.19,20.59v5.42c-5.31,0-93.32-.01-107.42-.01-19.15,0-38.3,0-57.45,.03C11.47,116.21,.11,127.65,.06,153.28c-.09,48.78-.05,98.17-.01,145.93v13c.01,5.5,.02,10.69,.6,15.83,1.95,17.29,13.53,28,30.98,28.65,2,.07,4.16,.11,6.79,.11,1.92,0,3.87-.02,5.9-.04h.07c2.2-.02,4.48-.04,6.88-.04h6.42l-1.08,6.33c-.75,4.39-1.52,8.6-2.27,12.68l-.03,.14c-1.76,9.62-3.42,18.7-4.35,27.67-.44,4.25,.32,8.83,1.03,10.5l.05,.12,.12,.03c.37,.08,1,.18,1.9,.18,2.96,0,6.76-1.08,9.04-2.56,13.12-8.54,26.27-17.58,39.04-26.36,10.78-7.41,21.93-15.08,33.05-22.43,5.6-3.7,12.9-5.95,19.52-6.02,20.89-.22,42.02-.25,59.94-.25,3,0,10.51,0,18.02,0,7.51,0,15.02,0,18.02,0,8.76,0,17.52,0,26.28-.03,22.27-.07,34.19-11.72,34.49-33.69,.21-16.06,.18-32.41,.15-48.21-.02-8.16-.04-17.41-.01-26.42,0-2.88,.17-5.68,.34-8.65,.08-1.42,.17-2.88,.24-4.43l.24-5.17h5.17c2.96,0,5.86,.06,8.42,.1,2.4,.05,4.89,.09,7.33,.09,3.35,0,6.09-.09,8.6-.3,1.61-.13,3.21-.2,4.77-.2,11.72,0,22,3.61,32.35,11.37,20.94,15.7,42.72,30.02,61.27,41.95,2.21,1.42,6.04,2.54,8.72,2.54,.57,0,.95-.05,1.17-.1l.1-.02,.06-.08c.9-1.34,1.9-6.05,1.47-10.68-.8-8.68-2.34-17.25-3.96-26.33-.63-3.5-1.34-7.47-1.99-11.4l-.97-5.88,5.95-.41c1.41-.1,2.64-.19,3.74-.28,2.12-.17,3.94-.32,5.8-.34,30.07-.46,38.76-9.19,38.76-38.91,0-14.99-.07-30.12-.14-44.78-.16-35.44-.33-72.08,.5-108.13,.29-12.56-2.76-22.2-9.07-28.65Zm-189.7,308.03c0,21.11-6.31,27.55-27.01,27.57h-5.21c-9.46,0-18.93-.02-28.39-.04-9.46-.02-18.91-.04-28.37-.04-16.4,0-38.06,.05-60.12,.43-6.23,.11-13.73,2.5-20.06,6.38-11.16,6.86-22.16,14.57-32.8,22.03-4.79,3.36-9.75,6.83-14.68,10.21-1.93,1.32-3.85,2.43-6.29,3.84l-.07,.04c-1.22,.71-2.58,1.5-4.14,2.42l-9.97,5.94,1.84-11.46c.51-3.18,.97-6.14,1.41-8.96,.92-5.92,1.71-11.03,2.68-16.27,1.25-6.77,1.28-10.91,.12-12.32-1.2-1.44-5.42-2.18-12.55-2.21-3.5,0-6.99-.01-10.48-.01h-6.48c-21.79-.03-28.09-6.23-28.1-27.65-.02-40.8-.02-81.61-.02-122.41v-39.37c0-.5,0-1.01,0-1.51v-.3c-.01-1.68-.03-3.42,.05-5.2,.57-13.43,8.43-21.25,21.55-21.45,5.92-.09,11.8-.1,16.76-.1h11.34s113.85,0,113.85,0c32.28,0,64.56,0,96.84,.01,22.23,0,28.31,6.16,28.32,28.63,0,53.93,0,107.86,0,161.78Zm187.68-123.14c-.02,17.78-6.31,24.17-24.03,24.43-3.26,.05-6.52,.01-9.78-.02-2.08-.02-4.15-.04-6.23-.04-2.93,0-5.33,.05-7.57,.14-3.75,.16-6.28,.92-7.31,2.18-1.04,1.28-1.28,3.95-.68,7.73,.88,5.54,1.85,11.09,2.98,17.53l.03,.15c.56,3.17,1.15,6.56,1.79,10.28l2.18,12.62-10.58-7.23c-5.52-3.77-10.85-7.33-16-10.78l-.1-.07c-11.57-7.73-22.5-15.03-32.9-22.97-8.85-6.76-17.65-9.91-27.68-9.91-1.35,0-2.75,.06-4.16,.17-3.46,.28-7.18,.41-11.71,.41-3.04,0-6.06-.06-9.27-.12-3.34-.06-6.79-.13-10.44-.13h-5.42v-5.42c0-5.47-.09-10.92-.17-16.19-.19-11.84-.38-23.03,.36-34.44,1.15-17.73-1.64-29.92-8.52-37.27-6.24-6.66-16.29-9.89-30.74-9.89-2.35,0-4.85,.09-7.42,.26-5,.34-10.33,.5-16.79,.5-4.6,0-9.13-.08-13.98-.16-4.77-.08-9.7-.17-14.69-.17h-5.12l-.29-5.12c-.08-1.46-.18-2.82-.27-4.15-.19-2.7-.36-5.26-.37-7.85-.05-16.5-.04-33.28-.03-49.51v-11.55c.01-20.68,6.44-26.99,27.51-26.99h93.83s79.52,0,79.52,0c15.7,0,31.4,0,47.1,.01,20.41,.01,26.96,6.43,26.97,26.42,.02,43.19,.03,100.08-.02,157.14Z"/>
      <path d="M236.1,231.15h-101.08c-20.16,.01-40.33,0-60.54,0-9.45,0-9.48,2.05-9.53,5.16-.02,1.23,.12,2.86,.89,3.63,1.02,1.04,3.74,1.56,8.06,1.56h.28c10.3-.04,21.41-.06,34.97-.06,8.4,0,16.81,0,25.21,.01,6.69,0,13.37,.01,20.06,.01h42.42c12.98,0,25.96,0,38.94,.03h.27c2.42,0,7.45,0,8.97-1.56,.79-.81,.93-2.55,.9-3.87-.06-3.27-.1-4.91-9.82-4.91Z"/>
      <path d="M197.38,269.31l-25.82-.04c-24.87-.04-49.74-.08-74.61-.08-7.97,0-15.94,0-23.91,.01-4.81,0-6.57,1.08-7.2,1.73-.67,.69-.98,1.91-.92,3.64,.08,2.7,.16,5.26,8.07,5.26h.33c7.67-.08,16-.11,26.21-.11,5.86,0,11.71,.01,17.57,.02,5.77,0,11.55,.02,17.32,.02h.37c5.83,0,11.65,0,17.48-.01,5.83,0,11.66-.01,17.49-.01,10.49,0,19.03,.02,26.87,.07h.35c8.79,0,8.79-2.04,8.79-5.42,0-2.94,0-5.07-8.41-5.08Z"/>
      <path d="M72.88,203.36h.12c8.79-.02,17.57-.03,26.36-.03h33.86s30.58,0,36.7,0c9.12,0,18.24,0,27.36,.03h.17c8.18,0,8.58-1.74,8.61-5.07,.02-1.86-.33-3.17-1.03-3.88-1.08-1.09-3.54-1.64-7.32-1.64-20.53,.03-41.24,.05-61.57,.05s-41.8-.02-62.78-.05c-8.56,0-8.61,2.32-8.68,5.26-.03,1.26,.11,2.93,.92,3.76,1,1.03,3.52,1.57,7.29,1.57Z"/>
      <path d="M428.6,84.13c3.35,0,5.77-.6,6.83-1.68,.72-.74,1.07-2.06,1.04-3.92-.05-2.83-.09-5.07-8.21-5.07h-.22c-7.6,.04-15.69,.06-26.22,.06-4.64,0-32.48-.01-32.48-.01-5.31,0-10.61,.02-15.92,.03-6.08,.01-12.15,.03-18.23,.03-9.51,0-17.32-.04-24.59-.12h-.41c-4.84,0-6.82,.97-7.63,1.78-.72,.72-1.08,2-1.08,3.81,0,2.16,.01,5.13,8.64,5.13h13.38c17.61,0,35.23,0,52.84-.02,17.42,0,34.84-.02,52.26-.02Z"/>
      <path d="M428.85,109.91h-.12c-6.01,.02-12.03,.03-18.04,.03h-24.32s-26.53,0-26.53,0c-6.03,0-12.05,0-18.14-.02-7.21,0-7.3,2.86-7.37,5.16-.06,1.84,.32,3.19,1.11,4.01,1.02,1.05,3.01,1.64,5.62,1.66,17.33,.09,34.22,.14,50.2,.14,12.86,0,25.58-.03,37.81-.09,3.04-.02,5.31-.65,6.38-1.78,.8-.84,1.15-2.28,1.05-4.27-.12-2.49-.24-4.84-7.65-4.84Z"/>
      <path d="M428.72,146.27h-8.33c-10.49-.02-20.98-.04-31.47-.04-9.35,0-18.69,.01-28.04,.04-2.74,0-4.79,.57-5.78,1.58-.76,.77-1.14,2.11-1.11,3.97,.03,2.5,.06,5.33,7.18,5.33h4.97c9.65,0,19.3,0,28.95-.01h19.18c4.91,0,9.82,0,14.73-.02,7.36-.03,7.41-2.61,7.47-5.11,.04-1.96-.31-3.33-1.05-4.09-1.04-1.06-3.42-1.65-6.7-1.65Z"/>
    </g>
  </g>
</svg>