<?xml version="1.0" encoding="UTF-8"?>
<svg id="Layer_2" data-name="Layer 2" xmlns="http://www.w3.org/2000/svg" viewBox="0 0 539.31 420.03">
  <g id="Layer_1-2" data-name="Layer 1">
    <g>
      <path d="M180.93,91.61c8.25,0,15.55-4.97,18.58-12.66l.64-1.64h21.15c3.99,0,5.4-3.05,5.4-5.67s-1.41-5.66-5.4-5.66h-21.15l-.65-1.64c-2.03-5.14-6.14-9.25-11.28-11.28l-1.64-.65V31.27c0-3.99-3.05-5.4-5.66-5.4s-5.67,1.41-5.67,5.4v21.14l-1.64,.65c-10.49,4.14-13.61,14.27-12.05,22.47,1.41,7.42,7.33,16.08,19.35,16.08Zm-.24-28.6h.11c5.6,.08,8.59,4.63,8.56,8.86-.03,4.18-2.93,8.4-8.43,8.4s-8.38-4.28-8.44-8.51c-.06-4.24,2.74-8.61,8.2-8.76Z"/>
      <path d="M539.26,330.27v-.08c-.04-2.79-.08-5.96-.08-9.5-.12-3.16-10.05-17.41-13.32-22.11-1.24-1.78-2.22-3.19-2.86-4.16-1.27-1.94-3.35-2.69-7.41-2.69-.94,0-1.88,.04-2.8,.07-.86,.03-1.84,.07-2.75,.07h-2.58v-31.15c.02-1.91-.67-3.49-2.07-4.69l-38.74-34.3-26.13-68.39c-.83-2.18-2.96-3.64-5.29-3.64h-31.86l-42.34-64.87c-1.03-1.72-2.85-2.74-4.86-2.74h-104.32l.3-2.86c2.13-20.04-4.47-40.23-18.11-55.4C220.44,8.69,201.07,0,180.93,0s-39.5,8.68-53.12,23.82c-13.64,15.17-20.25,35.37-18.12,55.42l.3,2.86H25.63c-14.13,0-25.63,11.5-25.63,25.63v229.46c0,14.13,11.5,25.63,25.63,25.63h44.53l.1,2.48c.62,14.83,6.91,28.66,17.7,38.95l4.67,4.46H33.2c-3.99,0-5.4,3.05-5.4,5.66s1.42,5.66,5.4,5.66H508.59c3.99,0,5.4-3.05,5.4-5.66s-1.42-5.66-5.4-5.66h-59.45l4.68-4.46c10.8-10.29,17.09-24.12,17.71-38.95l.1-2.48h30.17c4.39,0,5.66-2.41,5.66-10.73v-2.58h2.58c3.75,0,7.05,.05,9.97,.09h.34c2.29,.04,4.28,.07,6.09,.07,5.72,0,9.57-.3,11.05-1.8,1.95-1.97,1.88-7.85,1.76-17.58Zm-52.39-75.51h-125.01v-24.04h97.86l27.15,24.04Zm-55.53-93.72l22.3,58.35h-91.78v-58.35h69.48Zm-69.49-54.24l28.01,42.91h-28.01v-42.91ZM180.93,11.33c33.26,0,60.31,27.06,60.31,60.31s-27.06,60.32-60.31,60.32-60.32-27.06-60.32-60.31,27.06-60.32,60.32-60.32ZM71.31,351.49H25.63c-7.89,0-14.31-6.42-14.31-14.3V107.73c0-7.89,6.42-14.3,14.31-14.3H112.65l.6,1.73c10.03,28.79,37.22,48.13,67.67,48.13s57.64-19.34,67.67-48.13l.6-1.73h101.32V351.49H183.41l-.48-1.98c-6.2-25.78-29.05-43.79-55.57-43.79s-49.37,18-55.57,43.79l-.48,1.98Zm56.05,57.21c-25.27,0-45.83-20.56-45.83-45.83s20.56-45.82,45.83-45.82c12.22,0,23.72,4.77,32.39,13.44s13.43,20.17,13.43,32.38c0,25.27-20.55,45.83-45.82,45.83Zm34.72,0l4.67-4.46c10.79-10.29,17.08-24.12,17.7-38.95l.1-2.48h172.67l.1,2.48c.62,14.83,6.91,28.66,17.71,38.95l4.67,4.46H162.08Zm252.35,0c-25.27,0-45.82-20.56-45.82-45.83s20.55-45.82,45.82-45.82c12.22,0,23.73,4.77,32.39,13.44s13.43,20.17,13.43,32.38c0,25.27-20.56,45.83-45.82,45.83Zm81.71-57.21h-25.66l-.48-1.98c-7.25-30.12-33.24-43.61-55.78-43.61-19.54,0-36.9,9.38-47.62,25.74l-4.75,7.24v-72.79h134.29v85.4Zm31.71-13.32h-20.39v-34.97h7.76l12.63,19.18v15.79Z"/>
      <path d="M127.36,340.3c-12.45,0-22.58,10.13-22.58,22.58s10.13,22.58,22.58,22.58,22.58-10.13,22.58-22.58-10.13-22.58-22.58-22.58Zm0,34.33c-7.62,0-11.6-5.91-11.6-11.76,0-3.02,1.03-5.86,2.89-8,1.5-1.71,4.22-3.75,8.71-3.75,7.62,0,11.6,5.91,11.6,11.75s-3.99,11.76-11.6,11.76Z"/>
      <path d="M165.44,294.16c1.07-1.07,1.66-2.49,1.65-4v-100.07h2.58c3.11,0,6.27-1.95,6.27-5.66v-25.78c0-3.12-2.54-5.67-5.67-5.67H28.24c-3.12,0-5.66,2.54-5.66,5.67v25.78c0,3.72,3.15,5.66,6.26,5.66h2.58v100.07c0,3.12,2.54,5.66,5.67,5.66h124.35c1.51,0,2.93-.59,4-1.66ZM33.91,178.77v-14.46H164.62v14.46H33.91Zm81.57,11.33v32.91l-4.04-2.74c-.82-.56-1.73-1.24-2.72-1.98-2.85-2.13-7.15-5.35-9.81-5.35s-6.26,2.78-9.17,5.04c-.92,.71-1.78,1.39-2.61,1.97l-4.07,2.86v-32.71h32.42Zm40.3,94.39H42.75v-94.4h28.97v43.6c0,3.07,2.59,5.66,5.66,5.66,2.64,0,10.28-5.49,16.64-10.28l.07-.05c1.36-1.02,2.53-1.9,3.4-2.52l1.46-1.02,18.99,12.9c.92,.62,1.95,.94,3.04,.94,2.79,0,5.81-2.15,5.81-5.63v-43.6h28.98v94.4Z"/>
      <path d="M414.43,340.3c-12.45,0-22.58,10.13-22.58,22.58s10.13,22.58,22.58,22.58,22.58-10.13,22.58-22.58-10.13-22.58-22.58-22.58Zm0,34.33c-7.62,0-11.6-5.91-11.6-11.76,0-3.02,1.03-5.86,2.89-7.99,1.5-1.71,4.22-3.76,8.71-3.76,7.62,0,11.6,5.91,11.6,11.75s-3.99,11.76-11.6,11.76Z"/>
      <path d="M192.17,190.09h2.58v100.07c0,3.12,2.54,5.66,5.66,5.66h124.35c3.12,0,5.66-2.54,5.66-5.66v-100.07h2.58c3.11,0,6.26-1.95,6.26-5.66v-25.78c0-3.12-2.54-5.67-5.67-5.67H191.57c-3.12,0-5.66,2.54-5.66,5.67v25.78c0,3.72,3.15,5.66,6.27,5.66Zm126.94,94.4h-113.03v-94.4h28.97v43.6c0,3.07,2.59,5.66,5.67,5.66,2.64,0,10.28-5.5,16.64-10.28,1.38-1.04,2.58-1.94,3.47-2.56l1.46-1.02,19,12.9c.92,.62,1.95,.94,3.04,.94,2.79,0,5.8-2.15,5.8-5.63v-43.6h28.98v94.4Zm-72.72-61.68v-32.72h32.42v32.92l-4.04-2.75c-.81-.55-1.7-1.22-2.69-1.96-2.85-2.14-7.16-5.37-9.84-5.37s-6.27,2.78-9.12,5.01c-.93,.73-1.81,1.42-2.65,2.01l-4.07,2.86Zm-49.15-58.51h130.71v14.46H197.23v-14.46Z"/>
    </g>
  </g>
</svg>