<?xml version="1.0" encoding="UTF-8"?>
<svg id="Layer_2" data-name="Layer 2" xmlns="http://www.w3.org/2000/svg" viewBox="0 0 418.56 425.2">
  <defs>
    <style>
      .cls-1 {
        fill: none;
      }
    </style>
  </defs>
  <g id="Layer_1-2" data-name="Layer 1">
    <g>
      <polygon class="cls-1" points="364.06 65.05 54.49 65.05 46.77 85.33 371.79 85.33 364.06 65.05"/>
      <polygon class="cls-1" points="376.22 96.96 42.33 96.96 34.61 117.23 383.94 117.23 376.22 96.96"/>
      <path class="cls-1" d="M88.13,170.66H404.3l-15.92-41.8H30.18l-15.93,41.8H86.82c.44-.05,.88-.05,1.31,0Z"/>
      <polygon class="cls-1" points="343.71 11.63 74.84 11.62 58.92 53.42 359.63 53.42 343.71 11.63"/>
      <path class="cls-1" d="M368.9,387.17V234.34c-13.09-2.07-25.04-10.22-32.21-21.89-8.74,13.64-24.27,22.75-41.95,22.75s-33.34-9-42.16-23.02c-8.71,13.79-24.33,23.02-42.14,23.02s-33.62-9.11-42.35-23.31c-8.31,13.11-22.72,21.11-36.54,22.65-1.63,.17-3.29,.28-4.99,.28-13.81,0-29.53-6.3-38.6-23.44-8.38,13.72-23.42,22.08-38.31,23.31v152.49h17.33v-73.74c0-33.6,27.34-60.97,60.97-60.97s60.97,27.34,60.97,60.97v73.74h179.97Zm-165.05-117.31c0-3.22,2.59-5.81,5.81-5.81h137.34c3.22,0,5.81,2.6,5.81,5.81v93.53c0,3.18-2.63,5.81-5.81,5.81H209.66c-3.22,0-5.81-2.59-5.81-5.81v-93.53Z"/>
      <rect class="cls-1" x="19.65" y="398.79" width="379.24" height="14.77"/>
      <path d="M209.66,369.21h137.34c3.18,0,5.81-2.63,5.81-5.81v-93.53c0-3.22-2.6-5.81-5.81-5.81H209.66c-3.22,0-5.81,2.6-5.81,5.81v93.53c0,3.22,2.59,5.81,5.81,5.81Zm5.78-93.53h125.71v58h-125.71v-58Zm0,69.62h125.71v12.28h-125.71v-12.28Z"/>
      <path d="M290.35,310.77l-28.61-16.54c-2.77-1.59-6.33-.62-7.92,2.15-1.59,2.77-.63,6.33,2.14,7.92l28.62,16.54c.93,.55,1.94,.79,2.91,.79,2.01,0,3.98-1.04,5.02-2.94,1.59-2.77,.63-6.33-2.15-7.92Z"/>
      <path d="M300.59,297.58l-28.61-16.54c-2.77-1.6-6.33-.63-7.93,2.14-1.59,2.77-.62,6.33,2.15,7.92l28.61,16.54c.93,.55,1.94,.8,2.91,.8,2.01,0,3.98-1.07,5.02-2.94,1.59-2.77,.62-6.33-2.15-7.93Z"/>
      <path d="M404.72,387.17h-24.19V234.57h0c18.35-2.35,37.98-18.79,38.03-57.92,.02-.76-.1-1.52-.38-2.26l-20.24-53.13c-.07-.21-.15-.41-.23-.6L353.16,3.74c-.87-2.25-3.01-3.74-5.43-3.74H70.83c-2.42,0-4.57,1.49-5.43,3.74L33.05,88.66c-.12,.27-.23,.54-.32,.83l-11.88,31.18c-.09,.19-.16,.39-.23,.6L.42,174.3l-.02,.04-.02,.06c-.25,.65-.38,1.34-.38,2.08,0,18.62,4.81,33.87,13.87,44.15,6.38,7.22,14.76,11.88,24.15,13.54v153H13.84c-3.22,0-5.81,2.6-5.81,5.81v26.4c0,3.22,2.59,5.82,5.81,5.82H404.72c3.22,0,5.81-2.6,5.81-5.82v-26.4c0-3.22-2.6-5.81-5.81-5.81Zm-25.64-164.16c-1.2,.15-2.42,.22-3.66,.22-.23-.03-.46-.04-.7-.04-.15,0-.29,0-.44,.01-12.77-.55-26.72-9.29-31.43-25.14,.85-3.54,1.31-7.22,1.31-11,0-1.6-.08-3.2-.24-4.77h62.84c-1.41,23.61-11.53,38.67-27.69,40.72Zm-251.12,29.45c-33.63,0-60.97,27.37-60.97,60.97v73.74h-17.33V234.68c14.89-1.23,29.94-9.59,38.31-23.31,9.08,17.14,24.8,23.44,38.6,23.44,1.69,0,3.36-.1,4.99-.28,13.83-1.54,28.23-9.54,36.54-22.65,8.73,14.2,24.61,23.31,42.35,23.31s33.43-9.23,42.14-23.02c8.81,14.01,24.65,23.02,42.16,23.02s33.21-9.11,41.95-22.75c7.17,11.67,19.11,19.82,32.21,21.89v152.83H188.93v-73.74c0-33.63-27.34-60.97-60.97-60.97Zm49.35,60.97v73.74H78.61s0-73.74,0-73.74c0-27.2,22.15-49.34,49.34-49.34s49.35,22.15,49.35,49.34ZM94.44,182.29h68.8c.22,1.55,.33,3.12,.33,4.7,0,2.94-.34,5.73-.96,8.35-.09,.27-.16,.55-.21,.83-4.13,15.62-18.49,25.29-32.12,26.81-13.88,1.53-30.52-5.13-36.2-28.32,.39-2.47,.59-5.04,.59-7.7,0-1.56-.08-3.12-.24-4.68Zm80.52,0h73.02c.21,1.55,.3,3.12,.3,4.7,0,3.12-.41,6.15-1.17,9.05-.08,.24-.15,.49-.21,.75-4.44,15.43-19.08,26.78-36.41,26.78s-31.72-10.83-36.34-26.48c.68-3.19,1.05-6.56,1.05-10.1,0-1.57-.08-3.14-.25-4.7Zm84.71,0h72.56c.21,1.56,.31,3.14,.31,4.74,0,20.18-16.96,36.57-37.79,36.57-16.61,0-31.24-10.52-36.12-25.74,.83-3.48,1.27-7.11,1.27-10.83,0-1.59-.08-3.17-.24-4.74ZM74.84,11.62H343.71s15.92,41.8,15.92,41.8H58.92l15.93-41.8Zm-20.35,53.43H364.06l7.73,20.28H46.77l7.73-20.28Zm-12.16,31.9H376.22l7.72,20.27H34.61l7.72-20.27Zm-12.15,31.9H388.37l15.92,41.8H88.13c-.43-.05-.87-.05-1.31,0H14.25l15.93-41.8Zm-7.59,84.05c-6.26-7.1-9.95-17.61-10.78-30.62H82.75c.22,1.56,.33,3.13,.33,4.71,0,22.39-19.31,36.23-37.23,36.23-6.47,0-15.74-1.8-23.25-10.31Zm376.3,200.66H19.65v-14.77H398.9v14.77Z"/>
      <path d="M154.57,324.05v21.76c0,3.22,2.59,5.81,5.82,5.81s5.81-2.6,5.81-5.81v-21.76c0-3.22-2.59-5.81-5.81-5.81s-5.82,2.6-5.82,5.81Z"/>
    </g>
  </g>
</svg>