<?xml version="1.0" encoding="UTF-8"?>
<svg id="Layer_2" data-name="Layer 2" xmlns="http://www.w3.org/2000/svg" viewBox="0 0 446.69 423.53">
  <g id="Layer_1-2" data-name="Layer 1">
    <path d="M409.36,343.35c29-7.77,38.21-23.5,37.27-34.62-.75-8.97-7.7-16.13-18.59-19.15l-.8-.22,.21-.8c1.72-6.39,1.52-12.22-.59-17.31-3.15-7.6-10.42-12.14-19.45-12.14-2.64,0-5.42,.38-8.27,1.14l-.8,.21-.22-.8c-3.17-11.69-10.94-18.66-20.78-18.66-11.12,0-25.64,9.81-33.01,37.34-1.44,5.38-2.16,10.92-2.14,16.44v3.05s-1.55-2.61-1.55-2.61c-33.92-56.71-43.34-128.6-43.43-129.32-.22-1.68-1.24-3.15-2.74-3.92-1.48-.76-3.33-.75-4.78,.05-8.83,4.76-17.66,10.12-26.25,15.94l-.97,.66-15.12-56.45,.71-.27c18.87-7.05,31.04-21.42,33.39-39.44C286.09,46.92,247.61,3.53,245.97,1.7c-.98-1.1-2.34-1.7-3.82-1.7-.18,0-.36,0-.53,.03-1.63,.17-3.09,1.12-3.91,2.54l-9.77,16.93-14.33-14.33c-1.29-1.29-3.18-1.81-4.96-1.33-1.77,.48-3.16,1.87-3.63,3.63l-4.63,17.27-14.4-8.31c-1.41-.81-3.18-.9-4.66-.24-1.5,.67-2.59,2.02-2.93,3.63-.51,2.41-12.13,59.23,9.65,87.68,9.02,11.79,22.86,18.28,38.96,18.28,3.18,0,6.43-.28,9.67-.82l.75-.13,16.11,60.12-.46,.34c-11.85,8.73-23.37,18.49-34.25,29.02l-.59,.57-11.81-11.81,1.12-39.58c.04-1.37-.46-2.67-1.39-3.66-.94-1-2.24-1.57-3.7-1.61-2.77,0-5.09,2.24-5.16,4.98l-.85,29.89-51.32-51.32,.34-.56c5.79-9.58,13.55-27.96,.47-43.44l-.08-.08c-16.97-17.91-35.94-40.58-37.02-45.98l-.02-.14c-.06-2.2-1.51-4.11-3.62-4.76-2.07-.63-4.41,.17-5.67,1.91-.18,.24-4.38,6.08-9.06,15.14l-.31,.6-31.14-8.34c-1.08-.29-2.23-.22-3.31,.22l-.69,.35c-.27,.17-.54,.36-.78,.58l-.4,.4-.63,.9c-.66,1.17-.83,2.53-.48,3.83l7.86,29.32-.69,.27c-7.74,3.07-14.2,6.84-19.18,11.22-1.19,1.04-1.83,2.61-1.73,4.19,.1,1.57,.94,3.04,2.26,3.93l40.78,27.36,.09,.13c2.88,4.24,13.7,18.09,31.74,18.09,7.62,0,15.52-2.53,23.46-7.51l.56-.35,29.07,29.07-26.49-2.74c-2.88-.31-5.34,1.77-5.63,4.58-.14,1.36,.25,2.7,1.12,3.76,.87,1.07,2.09,1.73,3.46,1.87l39.05,4.04,32.51,32.51-.57,.59c-10.37,10.73-20.17,22.22-29.14,34.16l-.34,.45-57.11-15.3,.2-.79c5.09-20.71-1.4-41.58-16.54-53.17-11.43-8.75-28.64-13.19-51.14-13.19-19.56,0-35.86,3.39-36.54,3.53-1.6,.34-2.96,1.43-3.63,2.93-.67,1.5-.58,3.24,.24,4.66l8.31,14.4-17.27,4.63c-1.76,.47-3.16,1.86-3.63,3.63-.47,1.77,.04,3.67,1.33,4.96l14.33,14.32-16.93,9.77c-1.42,.82-2.37,2.28-2.54,3.92-.17,1.63,.46,3.26,1.68,4.35,1.63,1.46,40.34,35.87,74.6,35.87,2.08,0,4.15-.13,6.16-.39,16.02-2.09,30.1-12.96,37.65-29.09l.3-.63,54.09,14.49-.68,.98c-11,15.8-16.69,26.85-17.31,28.06-.75,1.49-.73,3.25,.05,4.73,.78,1.47,2.23,2.48,3.88,2.69,.92,.11,92.18,11.89,150.03,57.48,21.98,17.33,36.27,37.38,42.47,59.6,.49,1.76,1.89,3.13,3.64,3.59,.43,.11,.86,.17,1.31,.17,1.38,0,2.67-.54,3.62-1.5l55.07-55.07c1.29-1.28,1.8-3.17,1.34-4.93-.46-1.76-1.84-3.15-3.59-3.64-8.47-2.36-16.73-5.96-24.58-10.71l.74-2.26c6.38,.3,12.73-.41,18.89-2.07ZM212.64,18.71l9.99,9.99-3.85,6.66-9.18-5.3,3.04-11.34Zm27.02,95.14c-4.2,1.1-8.45,1.66-12.64,1.66-12.83,0-23.77-5.07-30.81-14.26-14.09-18.4-11.78-52.4-9.14-71.03h0s.17-1.22,.17-1.22l30.85,17.81c1.17,.67,2.59,.86,3.89,.51,1.32-.36,2.43-1.2,3.11-2.39l17.81-30.85,.76,.97c11.6,14.82,30.6,43.11,27.6,66.09-2.41,18.5-17.79,28.99-31.36,32.64l-.26,.07Zm-161.4-15.52c-1.49,8.1-1.83,15.87-1.01,23.11l.2,1.79-24.45-16.4,1.13-.67c7.81-4.65,16.88-7.35,23.12-8.79l1.24-.29-.23,1.25Zm7.14-23.56c-1.51,3.63-2.84,7.27-3.96,10.82l-.15,.48-.5,.09c-3.18,.56-6.42,1.27-9.61,2.13l-.81,.22-5.41-20.19,20.8,5.57-.37,.88Zm49.53,63.82l-.2,.2c-7.31,5.21-14.33,7.85-20.86,7.85-13.57,0-21.89-11.55-23.42-13.86l-.05-.08-.03-.09c-9.39-25.03,3.5-54.02,12.03-69.08l.68-1.2,.75,1.16c8.45,13.05,25.21,31.33,34.4,41.02l.07,.08c10.69,12.61-.92,30.54-3.36,34.01ZM18.71,212.64l11.34-3.04,5.3,9.18-6.65,3.85-9.99-9.99Zm95.2,26.77l-.12,.46-.45,.13c-1.72,.51-3.03,1.86-3.5,3.6-.38,1.43-.15,2.9,.66,4.14l.26,.39-.2,.42c-3.62,7.53-12.25,20.49-29.42,22.72-1.54,.21-3.16,.31-4.84,.31-22.26,0-47.93-17.49-61.25-27.91l-.97-.76,30.84-17.8c1.17-.68,2.05-1.82,2.39-3.12,.36-1.32,.18-2.7-.51-3.89l-9.67-16.75-.04-.08c-.08-.16-.17-.31-.24-.41l-7.86-13.61,1.22-.17c6.2-.88,15.77-1.93,26.13-1.93,19.92,0,35.45,3.83,44.91,11.07,14.67,11.23,16.16,29.67,12.66,43.19Zm281.99,32.96l.72-.33c3.89-1.76,7.52-2.65,10.8-2.65,3.45,0,7.98,1.01,9.97,5.8,1.66,4,1.08,9.57-1.61,15.63l-.07,.14c-.05,.09-.09,.18-.13,.27-1.78,3.89-4.35,7.88-7.63,11.87l-2.69,3.09c-.4,.43-.8,.87-1.22,1.3l-1.69,1.73-3.03,2.76c-9.27,7.81-21.09,12.11-33.27,12.11-.54,0-1.07,0-1.61-.03l-.78-.03-.03-.78c-.46-14.4,4.91-27.96,15.13-38.18,5.65-5.65,11.57-10.03,17.14-12.69Zm-41.64,8.62c5.5-20.54,15.56-29.73,23.09-29.73,5.34,0,9.55,4.73,11.25,12.65l.13,.6-.54,.3c-5.58,3.12-11.19,7.49-16.68,12.98l-.35,.35c-.5,.51-.99,1.02-1.5,1.57l-.88,.98c-.3,.34-.6,.69-.91,1.06l-.65,.78c-.33,.4-.65,.8-.97,1.22l-.12,.15c-.33,.43-.65,.86-.93,1.25l-2.47,3.63-2.14,3.7-1.67,3.36-1.59,3.81-.68,1.88c-.27,.78-.52,1.56-.76,2.37l-.03,.11c-.03,.11-.07,.22-.1,.34l-2.35-.06c-1.48-7.65-1.2-15.67,.85-23.29Zm-42.88,66.99c-48.89-35.77-114.89-49.8-141-54.18l-1.2-.2,.62-1.05c13.38-22.6,51.6-79.26,117.29-117.32l1.04-.6,.2,1.19c4.35,26.2,18.32,92.4,54.08,141.13l.42,.58-11.54,11.54-.59-.68c-6.7-7.71-65.13-76.41-55.34-112.96,.35-1.32,.17-2.7-.51-3.88-.69-1.19-1.79-2.04-3.12-2.39-.44-.12-.89-.18-1.34-.18-2.32,0-4.35,1.56-4.95,3.8-4.22,15.76,1.05,37.14,15.68,63.57l-1.7,1.29-47.01-47.01c-.96-.97-2.25-1.5-3.62-1.5s-2.66,.54-3.63,1.5c-.97,.97-1.5,2.26-1.5,3.63s.54,2.66,1.5,3.63l47,47-1.29,1.7c-26.29-14.55-47.87-19.88-63.56-15.68-2.73,.74-4.36,3.56-3.63,6.29,.6,2.24,2.64,3.81,4.95,3.81,.45,0,.9-.06,1.34-.18,2.7-.73,5.68-1.09,8.87-1.09,37.99,0,97.43,50.66,104.08,56.43l.68,.59-11.66,11.65-.58-.42Zm21.44,18.49c-3.71-3.82-7.75-7.56-12.01-11.12l-.7-.58,14.38-14.38c.06-.06,.24-.23,.29-.28l14.44-14.44,.59,.7c3.6,4.29,7.35,8.32,11.14,12l.61,.59-28.13,28.13-.59-.61Zm69.34-1.29l1.21,.46-43.19,43.19-.46-1.2c-4.32-11.34-10.71-22.2-18.97-32.3l-.48-.58,28.96-28.96,.58,.48c10.07,8.22,20.96,14.59,32.35,18.92Zm-18.71-30.93l-.04-2.36c9.94-2.89,19.07-8.3,26.47-15.71,5.38-5.38,9.68-10.88,12.8-16.36l.5-.87,.6,.13c7.49,1.59,12.21,5.52,12.62,10.5,.63,7.49-8.4,18.15-29.7,23.85-7.55,2.02-15.58,2.3-23.24,.82Z"/>
  </g>
</svg>